<svg version="1.2" xmlns="http://www.w3.org/2000/svg" viewBox="0 0 1280 720" width="1280" height="720"><style></style><path  d="m328.9 423.5h-58.7v-9h7.2q1.9 0 3.5-0.4 1.5-0.4 2.7-1.6 1.2-1.1 1.8-3.3 0.7-2.1 0.7-5.8v-81.2q0-3.6-0.7-5.8-0.6-2.1-1.8-3.3-1.2-1.2-2.7-1.5-1.6-0.4-3.5-0.4h-7.2v-9.1h58.7v9.1h-7.1q-1.8 0-3.5 0.4-1.6 0.3-2.7 1.5-1.2 1.2-1.9 3.3-0.6 2.2-0.6 5.8v81.2q0 3.7 0.6 5.8 0.7 2.2 1.9 3.3 1.1 1.2 2.7 1.6 1.7 0.4 3.5 0.4h7.1zm97.9-129.2v108.2q0 3.9 1.1 6.3 1.2 2.3 3.1 3.5 2 1.3 4.5 1.7 2.6 0.4 5.4 0.4h0.7v9.1h-33l-4.7-13.3h-1.6q-1.9 3.5-4.4 6.2-2.4 2.7-5.6 4.7-3.2 1.9-7.2 3-4 1-9 1-8.3 0-14.7-2.7-6.5-2.8-11-8.6-4.4-5.8-6.7-14.7-2.2-8.9-2.2-21.1 0-12.2 2.2-21.2 2.3-9.1 6.7-14.9 4.4-5.9 10.8-8.7 6.4-2.9 14.6-2.9 4.8 0 8.7 1.1 3.9 1 6.9 2.8 3.2 1.8 5.6 4.3 2.4 2.4 4.1 5.4h1.2q-0.3-4.7-0.7-8.9-0.1-1.7-0.2-3.5-0.1-1.8-0.3-3.4 0-1.7-0.1-2.9 0-1.3 0-2v-9.4q0-3.5-1.2-5.6-1.1-2.1-3-3.2-1.8-1.1-4.3-1.4-2.5-0.3-5.3-0.3h-1.3v-9zm-43.4 118.1q5.1 0 8.4-2.1 3.4-2.1 5.4-6.4 2.1-4.4 2.9-10.8 0.8-6.6 0.8-15.4 0-8.4-0.8-14.8-0.8-6.6-2.9-11-2-4.5-5.4-6.7-3.3-2.3-8.4-2.3-4.2 0-7.3 2.3-3 2.2-4.9 6.7-1.8 4.5-2.7 11-0.8 6.5-0.8 15 0 17.3 3.5 26 3.7 8.5 12.2 8.5zm111-71.2q-7.1 0-11.4 7-4.1 7.1-4.5 20.7h29.4q0-6.5-0.8-11.6-0.7-5.2-2.4-8.7-1.6-3.6-4.1-5.5-2.5-1.9-6.2-1.9zm1.6 83.9q-10.8 0-19.1-3.1-8.2-3.2-13.8-9.2-5.5-5.9-8.4-14.6-2.8-8.7-2.8-19.8 0-12 2.8-21 2.9-9.1 8.3-15.1 5.3-6.1 13.2-9.1 7.8-3 17.9-3 9.2 0 16.6 2.6 7.4 2.6 12.5 7.7 5.2 5.2 7.9 12.8 2.7 7.6 2.7 17.8v8.7h-55.7q0.3 8.5 1.9 14.7 1.6 6.1 4.5 10.1 2.9 4 6.9 5.9 4.2 1.9 9.5 1.9 4.4 0 8.1-1 3.8-1.1 6.7-2.9 3.1-1.9 5.4-4.4 2.3-2.6 3.8-5.5 4.5 2.5 4.5 8.3 0 3.7-2 7-1.9 3.2-6.1 5.7-4.1 2.5-10.5 4-6.2 1.5-14.8 1.5zm79-27q0 7.3 2.3 11 2.4 3.6 7.3 3.6 3.7 0 6.6-1.5 3-1.5 5.1-4.3 2.1-2.9 3.2-6.9 1.2-4 1.2-9v-12.8l-7.7 0.5q-5 0.3-8.5 1.7-3.5 1.3-5.6 3.7-2.1 2.4-3 5.9-0.9 3.5-0.9 8.1zm15.1-57.6q-3.2 0-5.5 1.4-2.1 1.4-3.4 3.9-1.4 2.4-2 5.8-0.5 3.3-0.5 7.3-11.4 0-17.2-2.6-5.7-2.6-5.7-8.8 0-4.6 2.7-8 2.8-3.3 7.5-5.4 4.9-2 11.2-3 6.4-0.9 13.6-0.9 8.9 0 15.6 1.5 6.7 1.5 11.1 4.9 4.5 3.4 6.7 9 2.3 5.5 2.3 13.4v43.4q0 3.5 0.5 5.8 0.6 2.3 1.7 3.7 1.2 1.3 3.2 1.9 2 0.6 4.8 0.6h0.7v9.1h-31.7l-3.5-11.8h-1.5q-2.9 3.5-5.3 6-2.5 2.5-5.4 4.2-2.8 1.6-6.4 2.5-3.4 0.7-8.3 0.7-5.6 0-10.5-1.6-4.8-1.7-8.5-5.1-3.5-3.5-5.6-8.6-2.1-5.3-2.1-12.3 0-13.9 9.5-20.5 9.5-6.7 28.6-7.3l14-0.5v-9.3q0-4.3-0.4-7.8-0.3-3.6-1.4-6.2-1.1-2.6-3.2-4-2.1-1.4-5.6-1.4zm168 83h-15.7l-66.3-93.7v73.6q0 3.6 0.7 5.8 0.7 2.1 1.9 3.3 1.2 1.2 2.7 1.6 1.7 0.3 3.4 0.3h7.2v9.1h-44.4v-9.1h7.1q1.8 0 3.4-0.3 1.6-0.4 2.7-1.6 1.3-1.2 2-3.3 0.6-2.2 0.6-5.8v-82q0-3.4-0.7-5.4-0.7-2-1.9-3.1-1.2-1.1-2.8-1.4-1.6-0.4-3.3-0.4h-7.1v-9h37.7l60 84.8v-65.5q0-3.4-0.7-5.4-0.7-2-1.9-3.1-1.2-1.1-2.8-1.4-1.5-0.4-3.3-0.4h-7.1v-9h44.4v9h-7.1q-1.8 0-3.4 0.4-1.5 0.3-2.8 1.5-1.1 1.1-1.8 3.3-0.7 2.1-0.7 5.8zm33.3-118.7q0-3.2 1.1-5.6 1.2-2.3 3.1-3.7 2-1.5 4.5-2.2 2.7-0.7 5.8-0.7 2.9 0 5.5 0.7 2.7 0.7 4.7 2.2 2 1.4 3.1 3.7 1.3 2.4 1.3 5.6 0 3.2-1.3 5.5-1.1 2.3-3.1 3.8-2 1.5-4.7 2.2-2.6 0.8-5.5 0.8-3.1 0-5.8-0.8-2.5-0.7-4.5-2.2-1.9-1.5-3.1-3.8-1.1-2.3-1.1-5.5zm-11.7 109.7h2q1.9 0 4-0.4 2.1-0.4 3.9-1.6 1.8-1.1 3-3.3 1.2-2.1 1.2-5.8v-51.6q0-3.4-1.2-5.4-1.2-2.1-3-3.2-1.8-1.1-4-1.5-2.1-0.3-3.9-0.3h-2v-9h39.9v71q0 3.7 1.2 5.8 1.2 2.2 3 3.3 1.8 1.2 4 1.6 2.1 0.4 4 0.4h1.9v9h-54zm107.1 10.7q-9.4 0-17.2-2.4-7.7-2.4-13.3-8-5.5-5.5-8.6-14.5-3.1-9-3.1-22 0-13.8 3.2-23 3.2-9.2 8.8-14.8 5.6-5.5 13.3-7.8 7.6-2.5 16.4-2.5 8.2 0 14.5 1.5 6.3 1.3 10.6 3.7 4.2 2.4 6.4 5.7 2.2 3.3 2.2 7 0 2.7-1 5.4-0.9 2.6-3.4 4.6-2.4 1.9-6.7 3.2-4.3 1.2-10.9 1.2 0-4.4-0.6-8.3-0.5-4-1.7-7-1.3-3-3.4-4.8-2.1-1.8-5.3-1.8-3.8 0-6.8 1.8-2.9 1.8-5 6.1-2.1 4.3-3.3 11.5-1 7.3-1 18.1 0 17.3 4.7 25.9 4.7 8.5 15.4 8.5 4.4 0 8.2-1 3.9-1.1 7.1-2.9 3.2-1.9 5.5-4.4 2.4-2.6 3.9-5.5 2.1 1.3 3 3.4 1 2.1 1 4.4 0 3.3-1.9 6.6-1.9 3.3-5.9 6-4 2.7-10.3 4.4-6.2 1.7-14.8 1.7zm147.6-10.7v9h-2.4q-9.3 0-15.6-0.4-6.3-0.4-10.9-1.9-4.6-1.5-7.9-4.5-3.3-3-6.6-8.3l-15.1-23.8-6.8 5.1v13.8q0 3.6 1.1 5.8 1.3 2.1 3 3.3 1.8 1.2 4 1.6 2.1 0.3 4 0.3h2v9h-54.1v-9h2q1.9 0 4-0.3 2.2-0.4 3.9-1.6 1.8-1.2 3-3.3 1.2-2.2 1.2-5.8v-89.8q0-3.4-1.2-5.4-1.2-2-3-3.1-1.8-1.2-4-1.5-2.1-0.3-3.9-0.3h-2v-9h40v65.6q0 2.3-0.2 5.4-0.1 2.9-0.3 5.7-0.2 3.2-0.4 6.5l21.4-23.9q2.9-3.2 3.7-5 0.9-1.9 0.9-3.2 0-2.1-2.3-3.3-2.3-1.2-6.5-1.2v-8.6h42.8v8.6q-5.9 0-11.6 3.4-5.6 3.4-12.4 11l-10.7 12.2 22.6 33.7q4.5 6.7 9.1 10 4.5 3.2 8.6 3.2z"/></svg>