<svg xmlns="http://www.w3.org/2000/svg" version="1.1" xmlns:xlink="http://www.w3.org/1999/xlink" xmlns:svgjs="http://svgjs.dev/svgjs" width="64" height="64"><svg id="SvgjsSvg1032" xmlns="http://www.w3.org/2000/svg" width="64" height="64" viewBox="0 0 64 64"><title>idea</title><path d="M18.379,57.5l5.56,5.561A1.5,1.5,0,0,0,25,63.5H39a1.5,1.5,0,0,0,1.061-.439l5.56-5.561Z" style="fill: rgb(62, 62, 244); --darkreader-inline-fill: var(--darkreader-text-3e3ef4, #4887f5);" data-darkreader-inline-fill=""></path><path d="M32,.5a21.474,21.474,0,0,0-14.861,37h4.794a18.5,18.5,0,1,1,20.134,0h4.794A21.474,21.474,0,0,0,32,.5Z"></path><path d="M45,40.5H19A1.5,1.5,0,0,0,17.5,42V54.5h29V42A1.5,1.5,0,0,0,45,40.5Zm-3,6H22a1.5,1.5,0,0,1,0-3H42a1.5,1.5,0,0,1,0,3Z" style="fill: rgb(62, 62, 244); --darkreader-inline-fill: var(--darkreader-text-3e3ef4, #4887f5);" data-darkreader-inline-fill=""></path><path d="M36.939,23.061a1.5,1.5,0,0,0-2.121,0L32,25.879l-2.818-2.818a1.5,1.5,0,1,0-2.121,2.121L30.5,28.621V37.5h3V28.621l3.439-3.439A1.5,1.5,0,0,0,36.939,23.061Z"></path><path d="M17.5,23.5A1.5,1.5,0,0,1,16,22,16.019,16.019,0,0,1,32,6a1.5,1.5,0,0,1,0,3A13.015,13.015,0,0,0,19,22,1.5,1.5,0,0,1,17.5,23.5Z"></path></svg><style>@media (prefers-color-scheme: light) { :root { filter: none; } }
@media (prefers-color-scheme: dark) { :root { filter: none; } }
</style></svg>